<?xml version="1.0" encoding="UTF-8" standalone="no"?>
<!-- Created with Inkscape (http://www.inkscape.org/) -->

<svg
   width="576.18298mm"
   height="581.71747mm"
   viewBox="0 0 576.183 581.71749"
   version="1.1"
   id="svg1"
   inkscape:export-filename="..\..\..\..\..\..\..\Downloads\title.png"
   inkscape:export-xdpi="71.373581"
   inkscape:export-ydpi="71.373581"
   sodipodi:docname="title.svg"
   xml:space="preserve"
   inkscape:version="1.3 (0e150ed6c4, 2023-07-21)"
   xmlns:inkscape="http://www.inkscape.org/namespaces/inkscape"
   xmlns:sodipodi="http://sodipodi.sourceforge.net/DTD/sodipodi-0.dtd"
   xmlns:xlink="http://www.w3.org/1999/xlink"
   xmlns="http://www.w3.org/2000/svg"
   xmlns:svg="http://www.w3.org/2000/svg"><sodipodi:namedview
     id="namedview1"
     pagecolor="#ffffff"
     bordercolor="#000000"
     borderopacity="0.25"
     inkscape:showpageshadow="2"
     inkscape:pageopacity="0.0"
     inkscape:pagecheckerboard="0"
     inkscape:deskcolor="#d1d1d1"
     inkscape:document-units="mm"
     inkscape:zoom="0.1767767"
     inkscape:cx="2709.6332"
     inkscape:cy="1756.4532"
     inkscape:window-width="1920"
     inkscape:window-height="991"
     inkscape:window-x="-9"
     inkscape:window-y="-9"
     inkscape:window-maximized="1"
     inkscape:current-layer="layer1"
     showguides="true" /><defs
     id="defs1"><linearGradient
       id="swatch26"
       inkscape:swatch="solid"><stop
         style="stop-color:#000000;stop-opacity:0;"
         offset="0"
         id="stop26" /></linearGradient><linearGradient
       id="swatch18"
       inkscape:swatch="solid"><stop
         style="stop-color:#ff0000;stop-opacity:1;"
         offset="0"
         id="stop18" /></linearGradient><linearGradient
       inkscape:collect="always"
       xlink:href="#swatch26"
       id="linearGradient26"
       x1="74.500389"
       y1="100.40971"
       x2="124.92328"
       y2="100.40971"
       gradientUnits="userSpaceOnUse"
       gradientTransform="matrix(6.0706357,0,0,6.0706357,-419.22015,-519.80169)" /><filter
       inkscape:collect="always"
       style="color-interpolation-filters:sRGB"
       id="filter1"
       x="-0.022102782"
       y="-0.024212344"
       width="1.0442219"
       height="1.0484429"><feGaussianBlur
         inkscape:collect="always"
         stdDeviation="1.1332124"
         id="feGaussianBlur1" /></filter><filter
       inkscape:collect="always"
       style="color-interpolation-filters:sRGB"
       id="filter1-4"
       x="-0.022102782"
       y="-0.024212344"
       width="1.0442219"
       height="1.0484429"><feGaussianBlur
         inkscape:collect="always"
         stdDeviation="1.1332124"
         id="feGaussianBlur1-1" /></filter><linearGradient
       inkscape:collect="always"
       xlink:href="#swatch26"
       id="linearGradient2"
       gradientUnits="userSpaceOnUse"
       gradientTransform="matrix(6.0706357,0,0,6.0706357,-419.22015,-519.80169)"
       x1="74.500389"
       y1="100.40971"
       x2="124.92328"
       y2="100.40971" /><filter
       inkscape:collect="always"
       style="color-interpolation-filters:sRGB"
       id="filter1-9"
       x="-0.022102782"
       y="-0.024212344"
       width="1.0442219"
       height="1.0484429"><feGaussianBlur
         inkscape:collect="always"
         stdDeviation="1.1332124"
         id="feGaussianBlur1-6" /></filter><linearGradient
       inkscape:collect="always"
       xlink:href="#swatch26"
       id="linearGradient3"
       gradientUnits="userSpaceOnUse"
       gradientTransform="matrix(6.0706357,0,0,6.0706357,-419.22015,-519.80169)"
       x1="74.500389"
       y1="100.40971"
       x2="124.92328"
       y2="100.40971" /><filter
       inkscape:collect="always"
       style="color-interpolation-filters:sRGB"
       id="filter1-8"
       x="-0.022102782"
       y="-0.024212344"
       width="1.0442219"
       height="1.0484429"><feGaussianBlur
         inkscape:collect="always"
         stdDeviation="1.1332124"
         id="feGaussianBlur1-2" /></filter><linearGradient
       inkscape:collect="always"
       xlink:href="#swatch26"
       id="linearGradient4"
       gradientUnits="userSpaceOnUse"
       gradientTransform="matrix(6.0706357,0,0,6.0706357,-419.22015,-519.80169)"
       x1="74.500389"
       y1="100.40971"
       x2="124.92328"
       y2="100.40971" /><filter
       inkscape:collect="always"
       style="color-interpolation-filters:sRGB"
       id="filter1-5"
       x="-0.022102782"
       y="-0.024212344"
       width="1.0442219"
       height="1.0484429"><feGaussianBlur
         inkscape:collect="always"
         stdDeviation="1.1332124"
         id="feGaussianBlur1-3" /></filter><linearGradient
       inkscape:collect="always"
       xlink:href="#swatch26"
       id="linearGradient5"
       gradientUnits="userSpaceOnUse"
       gradientTransform="matrix(6.0706357,0,0,6.0706357,-419.22015,-519.80169)"
       x1="74.500389"
       y1="100.40971"
       x2="124.92328"
       y2="100.40971" /><filter
       inkscape:collect="always"
       style="color-interpolation-filters:sRGB"
       id="filter6"
       x="-1.4508175e-05"
       y="-8.7960555e-05"
       width="1.000029"
       height="1.0001759"><feGaussianBlur
         inkscape:collect="always"
         stdDeviation="0.0026670738"
         id="feGaussianBlur6" /></filter><filter
       inkscape:collect="always"
       style="color-interpolation-filters:sRGB"
       id="filter2"
       x="-0.49387486"
       y="-0.49387486"
       width="1.9877497"
       height="1.9877497"><feGaussianBlur
         inkscape:collect="always"
         stdDeviation="41.15624"
         id="feGaussianBlur2" /></filter><filter
       inkscape:collect="always"
       style="color-interpolation-filters:sRGB"
       id="filter6-0"
       x="-0.017249402"
       y="-0.10458014"
       width="1.0344988"
       height="1.2091603"><feGaussianBlur
         inkscape:collect="always"
         stdDeviation="0.0026670738"
         id="feGaussianBlur6-0" /></filter></defs><g
     inkscape:label="Capa 1"
     inkscape:groupmode="layer"
     id="layer1"
     transform="translate(187.72747,306.6069)"><path
       sodipodi:type="star"
       style="fill:#35504c;fill-opacity:1;stroke:none;stroke-width:0;stroke-linecap:round;stroke-linejoin:round;stroke-dasharray:none"
       id="path6"
       inkscape:flatsided="true"
       sodipodi:sides="4"
       sodipodi:cx="99.464539"
       sodipodi:cy="98.3834"
       sodipodi:r1="418.93436"
       sodipodi:r2="296.23132"
       sodipodi:arg1="0.78539816"
       sodipodi:arg2="1.5707963"
       inkscape:rounded="0"
       inkscape:randomized="0"
       d="m 395.69586,394.61472 -592.46264,1e-5 -10e-6,-592.46265 592.46265,-1e-5 z"
       inkscape:transform-center-x="1.8766903e-05"
       transform="matrix(2.3065694,0,0,1.2972789,-129.95734,-58.597706)"
       inkscape:export-filename="..\..\..\icon.png"
       inkscape:export-xdpi="71.373581"
       inkscape:export-ydpi="71.373581"
       inkscape:transform-center-y="8.7891098e-05" /><rect
       style="opacity:0.530162;mix-blend-mode:normal;fill:#30947c;fill-opacity:1;stroke:none;stroke-width:0.794;stroke-dasharray:none;stroke-opacity:1;filter:url(#filter2)"
       id="rect1-1"
       width="200"
       x="0.36404255"
       y="-118.51537"
       ry="32.933739"
       rx="32.933739"
       height="200"
       transform="matrix(1.449335,0,0,1.449335,-45.097074,8.3196032)" /><rect
       style="fill:#9e9e9e;fill-opacity:1;stroke:#9e9e9e;stroke-width:7.994;stroke-dasharray:none;stroke-opacity:1"
       id="rect1-3"
       width="200"
       x="0.00045997903"
       y="-97.243996"
       ry="32.933739"
       rx="32.933739"
       height="200"
       inkscape:export-filename="..\..\..\icon.png"
       inkscape:export-xdpi="71.373581"
       inkscape:export-ydpi="71.373581" /><rect
       style="fill:#329680;fill-opacity:1;stroke:#ffffff;stroke-width:7.994;stroke-dasharray:none;stroke-opacity:1"
       id="rect1"
       width="200"
       x="0"
       y="-118.70002"
       ry="0"
       rx="32.933739"
       height="200" /><path
       style="mix-blend-mode:normal;fill:#fffcfc;fill-opacity:1;fill-rule:nonzero;stroke:url(#linearGradient4);stroke-width:7.50331;stroke-linecap:round;stroke-linejoin:round;stroke-dasharray:none;stroke-opacity:1;paint-order:normal;filter:url(#filter1-8)"
       d="M 104.94229,237.88974 C 89.384031,223.24772 75.223824,210.56853 50.043387,188.73239 24.949657,166.97147 18.746937,161.43778 9.4631173,152.5293 -21.968513,122.36837 -33.437218,99.203825 -35.560544,61.590004 c -1.040203,-18.426497 1.215219,-31.545984 7.688826,-44.72431 3.82371,-7.7839882 8.417116,-14.0401792 14.937954,-20.3453352 11.4845513,-11.1047478 26.073521,-17.9877548 42.608691,-20.1026698 29.12498,-3.725196 56.961667,9.022084 75.669183,34.651228 1.27815,1.750954 2.90751,4.120044 3.62094,5.264632 0.71372,1.144588 1.39369,2.045337 1.51187,2.001664 0.11852,-0.04371 1.32297,-1.740317 2.67741,-3.770332 12.20944,-18.3000722 29.53091,-31.238375 48.4841,-36.215211 21.71891,-5.703028 45.22321,-1.713619 63.24547,10.734711 5.09843,3.5216008 11.66528,9.6263058 15.51581,14.4238988 6.34551,7.9061352 11.50099,18.4385372 13.97705,28.5543282 2.10376,8.595395 2.77499,17.995064 2.1085,29.527396 -1.86047,32.190841 -10.30575,52.926836 -31.28952,76.825906 -1.51826,1.72929 -5.77742,6.16298 -9.46484,9.85259 -9.60879,9.61468 -16.67744,16.03037 -38.69236,35.11808 -30.52187,26.46356 -44.91804,39.3154 -61.05063,54.50182 -2.90212,2.73186 -5.38738,4.96711 -5.52282,4.96711 -0.13588,0 -2.62073,-2.2346 -5.5228,-4.96577 z"
       id="path16-8"
       inkscape:export-filename="heart.svg"
       inkscape:export-xdpi="91.028084"
       inkscape:export-ydpi="91.028084"
       transform="matrix(0.11444973,0,0,0.11552278,34.837691,22.844866)" /><path
       style="mix-blend-mode:normal;fill:#fffcfc;fill-opacity:1;fill-rule:nonzero;stroke:url(#linearGradient2);stroke-width:7.50331;stroke-linecap:round;stroke-linejoin:round;stroke-dasharray:none;stroke-opacity:1;paint-order:normal;filter:url(#filter1-4)"
       d="M 104.94229,237.88974 C 89.384031,223.24772 75.223824,210.56853 50.043387,188.73239 24.949657,166.97147 18.746937,161.43778 9.4631173,152.5293 -21.968513,122.36837 -33.437218,99.203825 -35.560544,61.590004 c -1.040203,-18.426497 1.215219,-31.545984 7.688826,-44.72431 3.82371,-7.7839882 8.417116,-14.0401792 14.937954,-20.3453352 11.4845513,-11.1047478 26.073521,-17.9877548 42.608691,-20.1026698 29.12498,-3.725196 56.961667,9.022084 75.669183,34.651228 1.27815,1.750954 2.90751,4.120044 3.62094,5.264632 0.71372,1.144588 1.39369,2.045337 1.51187,2.001664 0.11852,-0.04371 1.32297,-1.740317 2.67741,-3.770332 12.20944,-18.3000722 29.53091,-31.238375 48.4841,-36.215211 21.71891,-5.703028 45.22321,-1.713619 63.24547,10.734711 5.09843,3.5216008 11.66528,9.6263058 15.51581,14.4238988 6.34551,7.9061352 11.50099,18.4385372 13.97705,28.5543282 2.10376,8.595395 2.77499,17.995064 2.1085,29.527396 -1.86047,32.190841 -10.30575,52.926836 -31.28952,76.825906 -1.51826,1.72929 -5.77742,6.16298 -9.46484,9.85259 -9.60879,9.61468 -16.67744,16.03037 -38.69236,35.11808 -30.52187,26.46356 -44.91804,39.3154 -61.05063,54.50182 -2.90212,2.73186 -5.38738,4.96711 -5.52282,4.96711 -0.13588,0 -2.62073,-2.2346 -5.5228,-4.96577 z"
       id="path16-5"
       inkscape:export-filename="heart.svg"
       inkscape:export-xdpi="91.028084"
       inkscape:export-ydpi="91.028084"
       transform="matrix(0.11444973,0,0,0.11552278,34.837691,-83.155139)" /><path
       style="mix-blend-mode:normal;fill:#fbf8f8;fill-opacity:1;fill-rule:nonzero;stroke:url(#linearGradient3);stroke-width:7.50331;stroke-linecap:round;stroke-linejoin:round;stroke-dasharray:none;stroke-opacity:1;paint-order:normal;filter:url(#filter1-9)"
       d="M 104.94229,237.88974 C 89.384031,223.24772 75.223824,210.56853 50.043387,188.73239 24.949657,166.97147 18.746937,161.43778 9.4631173,152.5293 -21.968513,122.36837 -33.437218,99.203825 -35.560544,61.590004 c -1.040203,-18.426497 1.215219,-31.545984 7.688826,-44.72431 3.82371,-7.7839882 8.417116,-14.0401792 14.937954,-20.3453352 11.4845513,-11.1047478 26.073521,-17.9877548 42.608691,-20.1026698 29.12498,-3.725196 56.961667,9.022084 75.669183,34.651228 1.27815,1.750954 2.90751,4.120044 3.62094,5.264632 0.71372,1.144588 1.39369,2.045337 1.51187,2.001664 0.11852,-0.04371 1.32297,-1.740317 2.67741,-3.770332 12.20944,-18.3000722 29.53091,-31.238375 48.4841,-36.215211 21.71891,-5.703028 45.22321,-1.713619 63.24547,10.734711 5.09843,3.5216008 11.66528,9.6263058 15.51581,14.4238988 6.34551,7.9061352 11.50099,18.4385372 13.97705,28.5543282 2.10376,8.595395 2.77499,17.995064 2.1085,29.527396 -1.86047,32.190841 -10.30575,52.926836 -31.28952,76.825906 -1.51826,1.72929 -5.77742,6.16298 -9.46484,9.85259 -9.60879,9.61468 -16.67744,16.03037 -38.69236,35.11808 -30.52187,26.46356 -44.91804,39.3154 -61.05063,54.50182 -2.90212,2.73186 -5.38738,4.96711 -5.52282,4.96711 -0.13588,0 -2.62073,-2.2346 -5.5228,-4.96577 z"
       id="path16-2"
       inkscape:export-filename="heart.svg"
       inkscape:export-xdpi="91.028084"
       inkscape:export-ydpi="91.028084"
       transform="matrix(0.11444973,0,0,0.11552278,140.83769,-83.155139)" /><path
       style="mix-blend-mode:normal;fill:#fffcfc;fill-opacity:1;fill-rule:nonzero;stroke:url(#linearGradient5);stroke-width:7.50331;stroke-linecap:round;stroke-linejoin:round;stroke-dasharray:none;stroke-opacity:1;paint-order:normal;filter:url(#filter1-5)"
       d="M 104.94229,237.88974 C 89.384031,223.24772 75.223824,210.56853 50.043387,188.73239 24.949657,166.97147 18.746937,161.43778 9.4631173,152.5293 -21.968513,122.36837 -33.437218,99.203825 -35.560544,61.590004 c -1.040203,-18.426497 1.215219,-31.545984 7.688826,-44.72431 3.82371,-7.7839882 8.417116,-14.0401792 14.937954,-20.3453352 11.4845513,-11.1047478 26.073521,-17.9877548 42.608691,-20.1026698 29.12498,-3.725196 56.961667,9.022084 75.669183,34.651228 1.27815,1.750954 2.90751,4.120044 3.62094,5.264632 0.71372,1.144588 1.39369,2.045337 1.51187,2.001664 0.11852,-0.04371 1.32297,-1.740317 2.67741,-3.770332 12.20944,-18.3000722 29.53091,-31.238375 48.4841,-36.215211 21.71891,-5.703028 45.22321,-1.713619 63.24547,10.734711 5.09843,3.5216008 11.66528,9.6263058 15.51581,14.4238988 6.34551,7.9061352 11.50099,18.4385372 13.97705,28.5543282 2.10376,8.595395 2.77499,17.995064 2.1085,29.527396 -1.86047,32.190841 -10.30575,52.926836 -31.28952,76.825906 -1.51826,1.72929 -5.77742,6.16298 -9.46484,9.85259 -9.60879,9.61468 -16.67744,16.03037 -38.69236,35.11808 -30.52187,26.46356 -44.91804,39.3154 -61.05063,54.50182 -2.90212,2.73186 -5.38738,4.96711 -5.52282,4.96711 -0.13588,0 -2.62073,-2.2346 -5.5228,-4.96577 z"
       id="path16-7"
       inkscape:export-filename="..\..\..\icon.png"
       inkscape:export-xdpi="91.028084"
       inkscape:export-ydpi="91.028084"
       transform="matrix(0.11444973,0,0,0.11552278,140.83769,22.844866)" /><path
       style="mix-blend-mode:normal;fill:#fffcfc;fill-opacity:1;fill-rule:nonzero;stroke:url(#linearGradient26);stroke-width:7.50331;stroke-linecap:round;stroke-linejoin:round;stroke-dasharray:none;stroke-opacity:1;paint-order:normal;filter:url(#filter1)"
       d="M 104.94229,237.88974 C 89.384031,223.24772 75.223824,210.56853 50.043387,188.73239 24.949657,166.97147 18.746937,161.43778 9.4631173,152.5293 -21.968513,122.36837 -33.437218,99.203825 -35.560544,61.590004 c -1.040203,-18.426497 1.215219,-31.545984 7.688826,-44.72431 3.82371,-7.7839882 8.417116,-14.0401792 14.937954,-20.3453352 11.4845513,-11.1047478 26.073521,-17.9877548 42.608691,-20.1026698 29.12498,-3.725196 56.961667,9.022084 75.669183,34.651228 1.27815,1.750954 2.90751,4.120044 3.62094,5.264632 0.71372,1.144588 1.39369,2.045337 1.51187,2.001664 0.11852,-0.04371 1.32297,-1.740317 2.67741,-3.770332 12.20944,-18.3000722 29.53091,-31.238375 48.4841,-36.215211 21.71891,-5.703028 45.22321,-1.713619 63.24547,10.734711 5.09843,3.5216008 11.66528,9.6263058 15.51581,14.4238988 6.34551,7.9061352 11.50099,18.4385372 13.97705,28.5543282 2.10376,8.595395 2.77499,17.995064 2.1085,29.527396 -1.86047,32.190841 -10.30575,52.926836 -31.28952,76.825906 -1.51826,1.72929 -5.77742,6.16298 -9.46484,9.85259 -9.60879,9.61468 -16.67744,16.03037 -38.69236,35.11808 -30.52187,26.46356 -44.91804,39.3154 -61.05063,54.50182 -2.90212,2.73186 -5.38738,4.96711 -5.52282,4.96711 -0.13588,0 -2.62073,-2.2346 -5.5228,-4.96577 z"
       id="path16"
       inkscape:export-filename="heart.svg"
       inkscape:export-xdpi="91.028084"
       inkscape:export-ydpi="91.028084"
       transform="matrix(0.11444973,0,0,0.11552278,87.837691,-31.155139)" /><text
       xml:space="preserve"
       style="font-style:normal;font-variant:normal;font-weight:normal;font-stretch:normal;font-size:76.2px;font-family:Rubik;-inkscape-font-specification:Rubik;letter-spacing:0px;fill:#ffffff;fill-opacity:1;stroke:#000000;stroke-width:15.208;stroke-linecap:round;stroke-linejoin:round;stroke-dasharray:none;stroke-opacity:1;filter:url(#filter6-0)"
       x="-122.63133"
       y="242.53636"
       id="text6-10"
       inkscape:export-filename="title.svg"
       inkscape:export-xdpi="91.028084"
       inkscape:export-ydpi="91.028084"
       transform="matrix(1.0000005,0,0,0.99999744,-1.2468829e-4,8.2005066)"><tspan
         sodipodi:role="line"
         id="tspan6-7"
         style="font-style:normal;font-variant:normal;font-weight:normal;font-stretch:normal;font-size:76.2px;font-family:Rubik;-inkscape-font-specification:Rubik;letter-spacing:0px;fill:#ffffff;fill-opacity:1;stroke:#000000;stroke-width:15.208;stroke-dasharray:none;stroke-opacity:1"
         x="-122.63133"
         y="242.53636">a dice game</tspan></text><text
       xml:space="preserve"
       style="font-style:normal;font-variant:normal;font-weight:normal;font-stretch:normal;font-size:76.1994px;font-family:Rubik;-inkscape-font-specification:Rubik;letter-spacing:0px;opacity:1;mix-blend-mode:normal;fill:#909090;fill-opacity:1;stroke:none;stroke-width:3.70799;stroke-linecap:round;stroke-linejoin:round"
       x="-122.6313"
       y="252.83717"
       id="text6-1"
       inkscape:export-filename="title.svg"
       inkscape:export-xdpi="91.028084"
       inkscape:export-ydpi="91.028084"><tspan
         sodipodi:role="line"
         id="tspan6-1"
         style="font-style:normal;font-variant:normal;font-weight:normal;font-stretch:normal;font-size:76.1994px;font-family:Rubik;-inkscape-font-specification:Rubik;letter-spacing:0px;fill:#909090;fill-opacity:1;stroke:none;stroke-width:3.70799;stroke-opacity:1"
         x="-122.6313"
         y="252.83717">a dice game</tspan></text><text
       xml:space="preserve"
       style="font-style:normal;font-variant:normal;font-weight:normal;font-stretch:normal;font-size:76.2px;font-family:Rubik;-inkscape-font-specification:Rubik;letter-spacing:0px;opacity:1;fill:#ffffff;fill-opacity:1;stroke:none;stroke-width:3.708;stroke-linecap:round;stroke-linejoin:round;filter:url(#filter6)"
       x="-122.63134"
       y="240.43608"
       id="text6"
       inkscape:export-filename="..\..\..\icon.png"
       inkscape:export-xdpi="71.373581"
       inkscape:export-ydpi="71.373581"
       transform="matrix(1.0000005,0,0,0.99999744,-1.2468829e-4,8.2005066)"><tspan
         sodipodi:role="line"
         id="tspan6"
         style="font-style:normal;font-variant:normal;font-weight:normal;font-stretch:normal;font-size:76.2px;font-family:Rubik;-inkscape-font-specification:Rubik;letter-spacing:0px;fill:#ffffff;fill-opacity:1;stroke:none;stroke-width:3.708;stroke-opacity:1"
         x="-122.63134"
         y="240.43608">a dice game</tspan></text></g></svg>
