<?xml version="1.0" encoding="UTF-8" standalone="no"?>
<!-- Created with Inkscape (http://www.inkscape.org/) -->

<svg
   width="300.03326mm"
   height="274.57339mm"
   viewBox="0 0 300.03326 274.5734"
   version="1.1"
   id="svg1"
   inkscape:export-filename="6.png"
   inkscape:export-xdpi="91.028084"
   inkscape:export-ydpi="91.028084"
   sodipodi:docname="heart.svg"
   xml:space="preserve"
   inkscape:version="1.3 (0e150ed6c4, 2023-07-21)"
   xmlns:inkscape="http://www.inkscape.org/namespaces/inkscape"
   xmlns:sodipodi="http://sodipodi.sourceforge.net/DTD/sodipodi-0.dtd"
   xmlns:xlink="http://www.w3.org/1999/xlink"
   xmlns="http://www.w3.org/2000/svg"
   xmlns:svg="http://www.w3.org/2000/svg"><sodipodi:namedview
     id="namedview1"
     pagecolor="#ffffff"
     bordercolor="#000000"
     borderopacity="0.25"
     inkscape:showpageshadow="2"
     inkscape:pageopacity="0.0"
     inkscape:pagecheckerboard="0"
     inkscape:deskcolor="#d1d1d1"
     inkscape:document-units="mm"
     inkscape:zoom="0.12236355"
     inkscape:cx="-543.4625"
     inkscape:cy="1548.6638"
     inkscape:window-width="1920"
     inkscape:window-height="991"
     inkscape:window-x="-9"
     inkscape:window-y="-9"
     inkscape:window-maximized="1"
     inkscape:current-layer="layer1" /><defs
     id="defs1"><linearGradient
       id="linearGradient52"
       inkscape:collect="always"><stop
         style="stop-color:#ff6363;stop-opacity:1;"
         offset="0"
         id="stop53" /><stop
         style="stop-color:#ef2a2a;stop-opacity:1;"
         offset="1"
         id="stop54" /></linearGradient><linearGradient
       id="swatch26"
       inkscape:swatch="solid"><stop
         style="stop-color:#000000;stop-opacity:0;"
         offset="0"
         id="stop26" /></linearGradient><linearGradient
       id="swatch18"
       inkscape:swatch="solid"><stop
         style="stop-color:#ff0000;stop-opacity:1;"
         offset="0"
         id="stop18" /></linearGradient><linearGradient
       inkscape:collect="always"
       xlink:href="#swatch26"
       id="linearGradient26"
       x1="74.500389"
       y1="100.40971"
       x2="124.92328"
       y2="100.40971"
       gradientUnits="userSpaceOnUse"
       gradientTransform="matrix(6.0706357,0,0,6.0706357,-379.67072,-491.83546)" /><radialGradient
       inkscape:collect="always"
       xlink:href="#linearGradient52"
       id="radialGradient54"
       cx="153.22504"
       cy="46.131397"
       fx="153.22504"
       fy="46.131397"
       r="24.711847"
       gradientTransform="matrix(6.0706357,0,0,5.5555013,-704.53175,-138.56965)"
       gradientUnits="userSpaceOnUse"
       spreadMethod="pad" /><filter
       inkscape:collect="always"
       style="color-interpolation-filters:sRGB"
       id="filter1"
       x="-0.022102782"
       y="-0.024212344"
       width="1.0442219"
       height="1.0484429"><feGaussianBlur
         inkscape:collect="always"
         stdDeviation="1.1332124"
         id="feGaussianBlur1" /></filter></defs><g
     inkscape:label="Capa 1"
     inkscape:groupmode="layer"
     id="layer1"
     transform="translate(-75.625037,19.573337)"><path
       style="mix-blend-mode:normal;fill:url(#radialGradient54);fill-opacity:1;fill-rule:nonzero;stroke:url(#linearGradient26);stroke-width:7.50331;stroke-linecap:round;stroke-linejoin:round;stroke-dasharray:none;stroke-opacity:1;paint-order:normal;filter:url(#filter1)"
       d="M 220.11676,246.28263 C 204.5585,231.64061 190.39829,218.96142 165.21785,197.12528 140.12412,175.36436 133.9214,169.83067 124.63758,160.92219 93.205951,130.76127 81.737245,107.59672 79.613919,69.982898 78.573716,51.556401 80.829138,38.436914 87.302745,25.258588 91.126455,17.4746 95.719862,11.218409 102.2407,4.9132527 c 11.48455,-11.1047481 26.07352,-17.9877547 42.60869,-20.1026697 29.12498,-3.725196 56.96167,9.022084 75.66919,34.651228 1.27815,1.750954 2.90751,4.120044 3.62094,5.264632 0.71372,1.144588 1.39369,2.045337 1.51187,2.001664 0.11852,-0.04371 1.32297,-1.740317 2.67741,-3.770332 12.20944,-18.3000718 29.53091,-31.2383749 48.4841,-36.215211 21.71891,-5.703028 45.22321,-1.713619 63.24547,10.734711 5.09843,3.52160117 11.66528,9.6263055 15.51581,14.423899 6.34551,7.906135 11.50099,18.438537 13.97705,28.554328 2.10376,8.595395 2.77499,17.995064 2.1085,29.527396 -1.86047,32.190842 -10.30575,52.926842 -31.28952,76.825912 -1.51826,1.72928 -5.77742,6.16297 -9.46484,9.85258 -9.60879,9.61468 -16.67744,16.03037 -38.69236,35.11808 -30.52187,26.46356 -44.91804,39.3154 -61.05063,54.50182 -2.90212,2.73186 -5.38738,4.96711 -5.52282,4.96711 -0.13588,0 -2.62073,-2.2346 -5.5228,-4.96577 z"
       id="path16"
       inkscape:export-filename="heart.svg"
       inkscape:export-xdpi="91.028084"
       inkscape:export-ydpi="91.028084" /></g></svg>
