<?xml version="1.0" encoding="UTF-8" standalone="no"?>
<!-- Created with Inkscape (http://www.inkscape.org/) -->

<svg
   width="24.153095mm"
   height="31.660107mm"
   viewBox="0 0 24.153095 31.660106"
   version="1.1"
   id="svg1"
   xml:space="preserve"
   sodipodi:docname="reload.svg"
   xmlns:inkscape="http://www.inkscape.org/namespaces/inkscape"
   xmlns:sodipodi="http://sodipodi.sourceforge.net/DTD/sodipodi-0.dtd"
   xmlns="http://www.w3.org/2000/svg"
   xmlns:svg="http://www.w3.org/2000/svg"><sodipodi:namedview
     id="namedview1"
     pagecolor="#ffffff"
     bordercolor="#000000"
     borderopacity="0.25"
     inkscape:showpageshadow="2"
     inkscape:pageopacity="0.0"
     inkscape:pagecheckerboard="0"
     inkscape:deskcolor="#d1d1d1"
     inkscape:document-units="mm" /><defs
     id="defs1" /><g
     inkscape:label="Capa 1"
     inkscape:groupmode="layer"
     id="layer1"
     transform="translate(-109.09812,113.15313)"><path
       d="m 121.20929,-83.796975 c -1.6781,6.84e-4 -2.69072,0.0023 -3.27158,0.0077 -0.29649,0.0028 -0.49039,0.0066 -0.62267,0.01195 -0.13227,0.0054 -0.20283,0.012 -0.25312,0.02052 -0.0961,0.01626 -0.17656,0.03264 -0.24396,0.05025 -0.0673,0.01763 -0.12145,0.03654 -0.16481,0.0578 -0.0434,0.02126 -0.0762,0.04489 -0.10003,0.07204 -0.0239,0.02716 -0.0392,0.05788 -0.0483,0.09319 -0.0125,0.04765 -0.004,0.09235 0.0216,0.133402 0.0132,0.02054 0.0307,0.04004 0.0529,0.05864 0.0222,0.01861 0.0489,0.0363 0.0798,0.05277 0.031,0.01648 0.0665,0.0319 0.10591,0.04606 0.0394,0.01417 0.0834,0.02706 0.13081,0.03875 0.0474,0.01167 0.0985,0.02201 0.15371,0.03099 0.0375,0.0061 0.0789,0.0107 0.1197,0.01549 0.0944,0.0051 0.26015,0.0087 0.46242,0.01173 0.0615,0.0011 0.16687,0.0018 0.25638,0.0027 0.53818,0.0054 1.45343,0.0075 3.01714,0.0095 0.11273,-4.8e-5 0.18929,3.12e-4 0.30415,2.08e-4 0.11514,1.04e-4 0.1918,-2.56e-4 0.30478,-2.08e-4 1.56338,-0.0018 2.47828,-0.004 3.0165,-0.0095 0.09,-8.88e-4 0.19593,-0.0019 0.25769,-0.003 0.20167,-0.003 0.36684,-0.0065 0.46112,-0.01152 0.0408,-0.0048 0.0823,-0.0094 0.1197,-0.01549 0.0551,-0.009 0.10687,-0.01932 0.15435,-0.03099 0.0475,-0.01167 0.0907,-0.02457 0.13017,-0.03875 0.0393,-0.01417 0.0749,-0.0296 0.10591,-0.04606 0.031,-0.01648 0.0576,-0.03417 0.0798,-0.05277 0.0222,-0.0186 0.0405,-0.0381 0.0535,-0.05864 0.0263,-0.04106 0.0332,-0.08575 0.0209,-0.133404 -0.009,-0.03531 -0.0245,-0.06604 -0.0484,-0.09319 -0.0239,-0.02717 -0.056,-0.05078 -0.0994,-0.07204 -0.0434,-0.02126 -0.098,-0.04018 -0.16546,-0.0578 -0.0673,-0.01763 -0.14795,-0.03401 -0.24399,-0.05027 -0.0502,-0.0085 -0.12084,-0.01524 -0.2531,-0.02053 -0.13228,-0.0054 -0.32619,-0.0091 -0.62267,-0.01194 -0.58097,-0.0056 -1.59287,-0.0071 -3.27157,-0.0077 z"
       style="fill:#ffffff;fill-opacity:1;stroke:#ffffff;stroke-width:3.18048;stroke-dasharray:none;stroke-opacity:1"
       id="path41-8"
       inkscape:export-filename="..\pngs\hint.png"
       inkscape:export-xdpi="96"
       inkscape:export-ydpi="96" /><g
       id="g45"
       transform="translate(26.371124,-32.947732)"
       style="stroke-width:3.2;stroke-dasharray:none"><path
         d="m 99.95286,-77.248666 c 0.0422,0.02816 0.08577,0.05653 0.11937,0.08268 0.0481,0.03751 0.087,0.0726 0.11524,0.104903 0.0463,0.05302 0.0855,0.108535 0.11834,0.165364 0.0328,0.05683 0.0593,0.11513 0.0786,0.17415 0.0193,0.05902 0.0317,0.118704 0.0377,0.178284 0.006,0.05958 0.006,0.119237 -0.001,0.177767 -0.007,0.05853 -0.0205,0.116232 -0.0403,0.172082 -0.0197,0.05585 -0.0456,0.109681 -0.078,0.161231 -0.0325,0.05154 -0.0714,0.100624 -0.11627,0.146244 -0.0449,0.04562 -0.0958,0.08801 -0.15296,0.12609 -0.04104,0.02733 -0.08181,0.05039 -0.122995,0.06976 -0.04117,0.01937 -0.08288,0.03473 -0.125574,0.04599 -0.04269,0.01126 -0.08671,0.0187 -0.132291,0.0217 -0.04559,0.003 -0.09278,0.0018 -0.142627,-0.0036 -0.04985,-0.0054 -0.102123,-0.01498 -0.157613,-0.02894 -0.05549,-0.01396 -0.114224,-0.03212 -0.176734,-0.05478 -0.125025,-0.04532 -0.265495,-0.108623 -0.426847,-0.189653 -0.161664,-0.08119 -0.320198,-0.155812 -0.47749,-0.224792 -0.07039,-0.03087 -0.139907,-0.05624 -0.209807,-0.08475 0.0717,0.02985 0.143889,0.05786 0.214974,0.08992 0.131779,0.05942 0.262304,0.122383 0.391708,0.189136 0.129404,0.06675 0.257804,0.137074 0.384472,0.21084 0.126669,0.07376 0.251599,0.151049 0.375171,0.23151 0.123572,0.08046 0.245756,0.164309 0.365869,0.251148 0.120115,0.08684 0.238204,0.176852 0.354504,0.269751 0.11629,0.0929 0.23101,0.188679 0.34313,0.287321 0.11212,0.09864 0.2216,0.19979 0.32918,0.303857 0.10757,0.104067 0.21306,0.210702 0.31574,0.319877 0.10268,0.109176 0.20282,0.220899 0.30024,0.334863 0.0974,0.113966 0.19191,0.230377 0.2837,0.348816 0.0918,0.118439 0.18084,0.239142 0.26665,0.361735 0.0858,0.122595 0.16858,0.247188 0.24805,0.373621 0.0795,0.126433 0.15565,0.254519 0.22841,0.384473 0.0728,0.129953 0.14204,0.261651 0.20774,0.394808 0.0708,0.143522 0.1367,0.287185 0.19792,0.430981 0.0146,0.03419 0.0263,0.0686 0.0403,0.102836 -0.0122,-0.03115 -0.0227,-0.06376 -0.0351,-0.09457 -0.0803,-0.199825 -0.16413,-0.391882 -0.24753,-0.566373 -0.0841,-0.175983 -0.14931,-0.326529 -0.19741,-0.45837 -0.024,-0.06592 -0.0435,-0.127075 -0.0589,-0.184485 -0.0154,-0.05741 -0.0266,-0.111178 -0.0336,-0.161747 -0.007,-0.05057 -0.01,-0.09824 -0.009,-0.143661 10e-4,-0.04542 0.007,-0.08828 0.016,-0.130225 0.009,-0.04195 0.0224,-0.08284 0.0393,-0.122989 0.0169,-0.04015 0.0376,-0.07985 0.062,-0.11989 0.0292,-0.04793 0.0638,-0.09186 0.10284,-0.131775 0.039,-0.03992 0.082,-0.07553 0.12867,-0.10697 0.0467,-0.03144 0.0969,-0.05863 0.14935,-0.08113 0.0525,-0.0225 0.10761,-0.04065 0.16381,-0.05374 0.0562,-0.01309 0.11367,-0.02109 0.17157,-0.02429 0.0579,-0.0032 0.11603,-0.0014 0.17363,0.0057 0.0576,0.0071 0.11472,0.01926 0.17002,0.03721 0.0553,0.01795 0.10919,0.04157 0.16019,0.0708 0.0406,0.02322 0.0783,0.05187 0.11679,0.09043 0.005,0.0051 0.011,0.01465 0.016,0.02015 -0.11525,-0.194261 -0.23391,-0.386899 -0.36225,-0.574642 -0.14935,-0.218489 -0.30748,-0.43267 -0.47439,-0.641304 -0.16691,-0.208634 -0.34281,-0.412108 -0.5271,-0.609782 -0.1728,-0.185353 -0.35132,-0.363197 -0.53588,-0.533818 -0.18457,-0.170619 -0.37518,-0.33374 -0.57051,-0.489375 -0.19533,-0.155636 -0.39539,-0.30402 -0.60048,-0.444418 -0.20509,-0.140398 -0.41504,-0.273 -0.6289,-0.397908 -0.0477,-0.02785 -0.0977,-0.05096 -0.14573,-0.07803 z"
         style="fill:#ffffff;stroke:#ffffff;stroke-width:3.2;stroke-linecap:round;stroke-linejoin:round;stroke-dasharray:none"
         id="path45" /><path
         d="m 89.652197,-77.248666 c -0.0422,0.02816 -0.0858,0.05653 -0.119373,0.08268 -0.04816,0.03751 -0.08698,0.0726 -0.115238,0.104903 -0.04638,0.05302 -0.0861,0.108535 -0.118856,0.165364 -0.03276,0.05683 -0.05869,0.11513 -0.07803,0.17415 -0.01934,0.05902 -0.03214,0.118704 -0.03824,0.178284 -0.0061,0.05958 -0.0053,0.119237 0.0016,0.177767 0.0069,0.05853 0.02053,0.116232 0.04031,0.172082 0.01978,0.05585 0.0456,0.109681 0.07803,0.161231 0.03243,0.05154 0.07138,0.100624 0.116272,0.146244 0.04489,0.04562 0.0958,0.08801 0.152962,0.12609 0.04103,0.02733 0.08182,0.05039 0.12299,0.06976 0.04117,0.01937 0.08288,0.03473 0.125574,0.04599 0.0427,0.01126 0.0862,0.0187 0.131775,0.0217 0.04558,0.003 0.09329,0.0018 0.143144,-0.0036 0.04985,-0.0054 0.102113,-0.01498 0.157613,-0.02894 0.05549,-0.01396 0.114223,-0.03212 0.176733,-0.05478 0.125026,-0.04532 0.265496,-0.108623 0.426847,-0.189653 0.161664,-0.08119 0.320199,-0.155812 0.477491,-0.224792 0.07039,-0.03087 0.139906,-0.05624 0.209806,-0.08475 0.06121,-0.02549 0.121831,-0.05315 0.183451,-0.077 0.01781,-0.0069 0.0359,-0.01237 0.05374,-0.01912 0.0072,-0.0027 0.0145,-0.0061 0.0217,-0.0088 0.0143,-0.0053 0.0286,-0.0093 0.04289,-0.01447 0.09491,-0.03496 0.18955,-0.07033 0.285254,-0.101286 0.232537,-0.07522 0.438219,-0.136105 0.63407,-0.185002 0.195851,-0.0489 0.381917,-0.08563 0.575676,-0.113171 0.193758,-0.02754 0.395406,-0.04568 0.621667,-0.05684 0.226261,-0.01116 0.477138,-0.01524 0.770496,-0.01499 0.02414,3e-5 0.04584,0.0014 0.06976,0.0016 0.02407,-1.43e-4 0.04598,-0.0015 0.07028,-0.0016 0.293356,-2.5e-4 0.544236,0.0038 0.770495,0.01499 0.226261,0.01116 0.427909,0.0293 0.621668,0.05684 0.193758,0.02754 0.379825,0.06427 0.575675,0.113171 0.195851,0.0489 0.401017,0.109779 0.633553,0.185002 0.09508,0.03075 0.189412,0.06607 0.283704,0.100769 0.01496,0.0054 0.02999,0.0095 0.04496,0.01499 0.0074,0.0027 0.01487,0.006 0.02222,0.0088 0.01767,0.0067 0.03558,0.01229 0.05323,0.01912 0.06162,0.02385 0.122237,0.05151 0.183451,0.077 0.0699,0.02851 0.139415,0.05388 0.209807,0.08475 0.157292,0.06898 0.315826,0.1436 0.47749,0.224792 0.161352,0.08103 0.301822,0.144329 0.426847,0.189653 0.06251,0.02266 0.121239,0.04082 0.176734,0.05478 0.05549,0.01396 0.107762,0.02354 0.157613,0.02894 0.04985,0.0054 0.09704,0.0066 0.142627,0.0036 0.04558,-0.003 0.0896,-0.01044 0.132291,-0.0217 0.04269,-0.01126 0.0844,-0.02662 0.125574,-0.04599 0.04118,-0.01937 0.08196,-0.04243 0.123,-0.06976 0.0572,-0.03808 0.10806,-0.08047 0.15296,-0.12609 0.0449,-0.04562 0.0838,-0.0947 0.11627,-0.146244 0.0324,-0.05155 0.0583,-0.105382 0.078,-0.161231 0.0198,-0.05585 0.0334,-0.113554 0.0403,-0.172082 0.007,-0.05853 0.007,-0.118183 0.001,-0.177767 -0.006,-0.05958 -0.0184,-0.119266 -0.0377,-0.178284 -0.0193,-0.05902 -0.0457,-0.11732 -0.0786,-0.17415 -0.0328,-0.05683 -0.072,-0.112347 -0.11834,-0.165364 -0.0282,-0.0323 -0.0671,-0.06739 -0.11524,-0.104903 -0.0336,-0.02615 -0.07717,-0.05452 -0.119375,-0.08268 -0.167594,-0.09435 -0.335246,-0.188024 -0.507463,-0.272851 -0.221626,-0.109165 -0.447017,-0.210688 -0.675411,-0.303858 -0.228393,-0.09317 -0.459852,-0.17836 -0.694014,-0.255281 -0.234162,-0.07692 -0.471104,-0.145252 -0.710034,-0.205672 -0.238932,-0.06042 -0.480252,-0.112914 -0.722954,-0.15658 -0.2427,-0.04367 -0.486782,-0.07876 -0.732255,-0.10542 -0.245471,-0.02666 -0.492246,-0.04486 -0.739489,-0.05426 -0.122591,-0.0047 -0.245612,-6.96e-4 -0.368453,-10e-4 -0.123015,3.67e-4 -0.246208,-0.0036 -0.36897,10e-4 -0.247244,0.0094 -0.494018,0.0276 -0.73949,0.05426 -0.245472,0.02666 -0.490071,0.06175 -0.732772,0.10542 -0.2427,0.04367 -0.483505,0.09616 -0.722436,0.15658 -0.238931,0.06042 -0.475874,0.128751 -0.710034,0.205672 -0.234162,0.07692 -0.465622,0.162113 -0.694015,0.255281 -0.228393,0.09317 -0.453785,0.194693 -0.675411,0.303858 -0.172216,0.08483 -0.33987,0.178502 -0.507462,0.272851 z"
         style="fill:#ffffff;stroke:#ffffff;stroke-width:3.2;stroke-linecap:round;stroke-linejoin:round;stroke-dasharray:none"
         id="path44" /><path
         d="m 85.82349,-73.49954 c 0.03837,-0.03844 0.07585,-0.06725 0.116272,-0.09043 0,0 5.16e-4,0 5.16e-4,0 0.05088,-0.02916 0.104518,-0.05286 0.159681,-0.0708 0,0 5.16e-4,0 5.16e-4,0 0.05516,-0.0179 0.112049,-0.0301 0.169499,-0.03721 0,0 5.17e-4,0 5.17e-4,0 0.05745,-0.0072 0.115377,-0.0088 0.173116,-0.0057 0,0 5.17e-4,0 5.17e-4,0 0.05774,0.0032 0.115017,0.01127 0.171049,0.02429 0,0 5.16e-4,0 5.16e-4,0 0.05603,0.01304 0.110972,0.03133 0.163298,0.05374 0,0 5.17e-4,0 5.17e-4,0 0.05232,0.02244 0.101701,0.0498 0.148311,0.08113 0,0 5.17e-4,0 5.17e-4,0 0.04661,0.03137 0.08976,0.06717 0.128674,0.10697 0,0 5.17e-4,0 5.17e-4,0 0.03898,0.03991 0.07362,0.08385 0.102836,0.131775 0.02441,0.04004 0.04509,0.07974 0.06201,0.11989 0.01691,0.04015 0.03007,0.08104 0.03927,0.122989 0.0092,0.04194 0.0143,0.08481 0.0155,0.130225 0.0012,0.04542 -0.0013,0.09309 -0.0083,0.143661 -0.007,0.05057 -0.01821,0.104337 -0.03359,0.161747 -0.01538,0.05741 -0.03488,0.118565 -0.05891,0.184485 -0.04807,0.131841 -0.113861,0.282387 -0.197921,0.45837 -0.08335,0.174491 -0.166733,0.366548 -0.247013,0.566373 -0.0091,0.02257 -0.01736,0.04603 -0.02584,0.06925 0.01,-0.02587 0.01951,-0.05174 0.03049,-0.07752 0.06122,-0.143796 0.12711,-0.287459 0.197921,-0.430981 0.0657,-0.133157 0.134979,-0.264855 0.207739,-0.394808 0.07276,-0.129954 0.148944,-0.25804 0.22841,-0.384473 0.07947,-0.126433 0.162237,-0.251026 0.248047,-0.373621 0.08581,-0.122593 0.174857,-0.243296 0.266651,-0.361735 0.09179,-0.118439 0.186288,-0.23485 0.283703,-0.348816 0.09742,-0.113964 0.197563,-0.225687 0.30024,-0.334863 0.102677,-0.109175 0.20765,-0.21581 0.315226,-0.319877 0.107578,-0.104067 0.217579,-0.205215 0.329696,-0.303857 0.112118,-0.09864 0.226318,-0.194422 0.342615,-0.287321 0.116296,-0.0929 0.234902,-0.182913 0.355017,-0.269751 0.120114,-0.08684 0.241781,-0.170687 0.365352,-0.251148 0.123572,-0.08046 0.24902,-0.157745 0.375688,-0.23151 0.126668,-0.07377 0.254552,-0.144087 0.383956,-0.21084 0.129404,-0.06675 0.260446,-0.129713 0.392224,-0.189136 0.07108,-0.03205 0.143278,-0.06007 0.214974,-0.08992 -0.0699,0.02851 -0.139415,0.05388 -0.209806,0.08475 -0.157292,0.06898 -0.315827,0.1436 -0.477491,0.224792 -0.161351,0.08103 -0.301821,0.144329 -0.426847,0.189653 -0.06251,0.02266 -0.121239,0.04082 -0.176733,0.05478 -0.0555,0.01396 -0.107762,0.02354 -0.157613,0.02894 -0.04985,0.0054 -0.09756,0.0066 -0.143144,0.0036 -0.04558,-0.003 -0.08908,-0.01044 -0.131775,-0.0217 -0.04269,-0.01126 -0.0844,-0.02662 -0.125574,-0.04599 -0.04117,-0.01937 -0.08196,-0.04243 -0.12299,-0.06976 -0.05716,-0.03808 -0.108068,-0.08047 -0.152962,-0.12609 -0.04489,-0.04562 -0.08384,-0.0947 -0.116272,-0.146244 -0.03243,-0.05155 -0.05825,-0.105382 -0.07803,-0.161231 -0.01978,-0.05585 -0.03338,-0.113554 -0.04031,-0.172082 -0.0069,-0.05853 -0.0077,-0.118183 -0.0016,-0.177767 0.0061,-0.05958 0.0189,-0.119266 0.03824,-0.178284 0.01934,-0.05902 0.04527,-0.11732 0.07803,-0.17415 0.03276,-0.05683 0.07248,-0.112347 0.118856,-0.165364 0.02826,-0.0323 0.06708,-0.06739 0.115238,-0.104903 0.03357,-0.02615 0.07717,-0.05452 0.119373,-0.08268 -0.04808,0.02707 -0.09805,0.05018 -0.145728,0.07803 -0.213859,0.124908 -0.423809,0.25751 -0.628902,0.397908 -0.205093,0.140398 -0.405669,0.288782 -0.600997,0.444418 -0.195328,0.155635 -0.385427,0.318756 -0.569991,0.489375 -0.184564,0.170621 -0.363602,0.348465 -0.536401,0.533818 -0.184287,0.197674 -0.359676,0.401148 -0.526583,0.609782 -0.166909,0.208634 -0.325036,0.422815 -0.47439,0.641304 -0.128336,0.187743 -0.246997,0.380381 -0.362252,0.574642 0.0052,-0.0055 0.0109,-0.01502 0.01602,-0.02015 z"
         style="fill:#ffffff;stroke:#ffffff;stroke-width:3.2;stroke-linecap:round;stroke-linejoin:round;stroke-dasharray:none"
         id="path43" /><path
         d="m 100.46967,-56.204472 c 0,-0.52671 0.007,-1.041617 0.0181,-1.447457 0.0111,-0.40584 0.0265,-0.702633 0.0434,-0.791683 0.0136,-0.07199 0.0285,-0.138652 0.0455,-0.202571 0.017,-0.06392 0.0364,-0.125175 0.0594,-0.185002 0.023,-0.05983 0.0494,-0.118574 0.0811,-0.178284 0.0317,-0.05971 0.0685,-0.120397 0.11163,-0.183968 0.0358,-0.05277 0.0983,-0.121384 0.14366,-0.179317 0.0324,-0.04459 0.0572,-0.08874 0.0946,-0.134359 0.0901,-0.109976 0.19503,-0.224291 0.31781,-0.3514 0.0556,-0.05753 0.12868,-0.12988 0.19172,-0.193269 0.0591,-0.06152 0.0957,-0.103739 0.16227,-0.172083 0.33579,-0.344575 0.62622,-0.655134 0.88211,-0.946195 0.12794,-0.145531 0.24714,-0.286132 0.35916,-0.423747 0.11202,-0.137616 0.21695,-0.271802 0.31574,-0.405143 0.0988,-0.133342 0.19182,-0.265715 0.28008,-0.398426 0.0883,-0.13271 0.17177,-0.265805 0.25219,-0.401526 0.0804,-0.135719 0.15777,-0.274139 0.23306,-0.416512 0.0753,-0.142371 0.14833,-0.288651 0.22117,-0.441316 0.11479,-0.240549 0.21993,-0.484555 0.31471,-0.730705 0.0948,-0.24615 0.1793,-0.494528 0.25425,-0.745174 0.075,-0.250647 0.14004,-0.503537 0.19534,-0.757577 0.0553,-0.25404 0.10061,-0.509517 0.13642,-0.765844 0.0358,-0.256329 0.0619,-0.513499 0.0785,-0.771013 0.0133,-0.207765 0.0157,-0.415848 0.0165,-0.623734 5.3e-4,-0.06878 0.002,-0.138705 0.002,-0.206189 -0.004,-0.238582 -0.0136,-0.477018 -0.0336,-0.714685 -0.0216,-0.256571 -0.0527,-0.511919 -0.093,-0.766362 -0.0404,-0.254443 -0.0899,-0.507916 -0.14883,-0.759127 -0.0589,-0.25121 -0.12726,-0.500366 -0.20464,-0.747241 -0.0774,-0.246875 -0.16378,-0.491336 -0.25942,-0.732772 -0.0956,-0.241434 -0.20047,-0.479794 -0.31419,-0.714685 -0.11372,-0.234891 -0.23631,-0.466255 -0.36794,-0.693498 -0.0185,-0.03198 -0.0405,-0.06224 -0.0594,-0.09405 h -0.001 c -0.005,-0.0055 -0.0109,-0.01502 -0.016,-0.02015 -0.0385,-0.03856 -0.0762,-0.06721 -0.11679,-0.09043 -0.051,-0.02923 -0.10487,-0.05285 -0.16019,-0.0708 -0.0553,-0.01795 -0.1124,-0.03007 -0.17002,-0.03721 -0.0576,-0.0071 -0.11572,-0.0089 -0.17363,-0.0057 -0.0579,0.0032 -0.11537,0.0112 -0.17157,0.02429 -0.0562,0.01309 -0.11135,0.03124 -0.16381,0.05374 -0.0525,0.0225 -0.10262,0.04969 -0.14935,0.08113 -0.0467,0.03144 -0.0897,0.06705 -0.12867,0.10697 -0.039,0.03992 -0.0736,0.08385 -0.10284,0.131775 -0.0244,0.04004 -0.0451,0.07974 -0.062,0.11989 -0.0169,0.04015 -0.0301,0.08104 -0.0393,0.122989 -0.009,0.04195 -0.0148,0.08481 -0.016,0.130225 -0.001,0.04542 0.002,0.09309 0.009,0.143661 0.007,0.05057 0.0182,0.10434 0.0336,0.161747 0.0154,0.05741 0.0349,0.118563 0.0589,0.184485 0.0481,0.131841 0.11334,0.282387 0.19741,0.45837 0.0834,0.174491 0.16725,0.366548 0.24753,0.566373 0.0124,0.03081 0.0229,0.06342 0.0351,0.09457 0.045,0.109764 0.0897,0.219154 0.12919,0.329696 0.0168,0.04702 0.0302,0.09489 0.046,0.14211 0.005,0.01583 0.0121,0.03121 0.0176,0.04703 0.0252,0.07337 0.0443,0.142435 0.0677,0.214973 0.003,0.01142 0.008,0.02267 0.0114,0.03411 5.9e-4,0.002 5.1e-4,0.0042 0.002,0.0062 0.0373,0.117267 0.0781,0.23713 0.10955,0.348816 0.0546,0.193416 0.0994,0.375763 0.13126,0.537435 0.016,0.08113 0.0298,0.181387 0.0413,0.296106 0.0115,0.114719 0.0208,0.244214 0.0279,0.382922 0.0143,0.277417 0.0199,0.593199 0.017,0.908989 -0.003,0.315788 -0.0135,0.631604 -0.0326,0.908988 -0.01,0.138692 -0.0211,0.267711 -0.0346,0.382406 -0.0135,0.114694 -0.0291,0.215006 -0.0465,0.296106 -0.0354,0.164928 -0.0746,0.327209 -0.11731,0.487308 -0.0426,0.160101 -0.0886,0.317635 -0.13849,0.47284 -0.0499,0.155205 -0.10366,0.308128 -0.16071,0.45837 -0.057,0.150241 -0.11769,0.298174 -0.1819,0.443384 -0.0642,0.145208 -0.13175,0.287772 -0.20309,0.42788 -0.0713,0.14011 -0.14636,0.277436 -0.22479,0.412378 -0.0784,0.134942 -0.16048,0.267686 -0.24598,0.397392 -0.0855,0.129706 -0.17412,0.256454 -0.26665,0.380855 -0.11139,0.14976 -0.3044,0.378008 -0.52504,0.624768 -0.22064,0.246762 -0.46909,0.512268 -0.69246,0.736906 -0.22337,0.224636 -0.45311,0.462318 -0.643372,0.664559 -0.190263,0.202243 -0.340872,0.368921 -0.406177,0.451136 -0.06248,0.07867 -0.121626,0.159044 -0.176733,0.241845 -0.05511,0.0828 -0.106634,0.167911 -0.154513,0.255282 -0.04788,0.08737 -0.09201,0.177377 -0.132808,0.269751 -0.0408,0.09237 -0.07826,0.187443 -0.112138,0.285254 -0.03387,0.09781 -0.06385,0.198108 -0.09095,0.30179 -0.0271,0.103683 -0.05084,0.210406 -0.07131,0.320394 -0.02047,0.109988 -0.03768,0.223303 -0.05168,0.340031 -0.014,0.116727 -0.02488,0.236801 -0.03256,0.360701 -0.0051,0.08172 -0.0097,0.153441 -0.02119,0.216008 -0.0057,0.03128 -0.01301,0.06036 -0.02325,0.08733 -0.01025,0.02697 -0.02364,0.05195 -0.04031,0.07493 -0.01667,0.02298 -0.03699,0.04373 -0.06201,0.06304 -0.02502,0.01931 -0.05463,0.03727 -0.08992,0.05323 -0.03529,0.01596 -0.07602,0.02996 -0.123506,0.04289 -0.04749,0.01293 -0.101684,0.02441 -0.163298,0.03462 -0.123227,0.02043 -0.276394,0.03605 -0.467672,0.04754 -0.191277,0.01149 -0.420833,0.01918 -0.695564,0.02429 -0.549463,0.01022 -1.281012,0.0098 -2.25671,0.0098 h -0.02067 -0.02119 c -0.975702,0 -1.707762,3.79e-4 -2.257227,-0.0098 -0.274732,-0.0051 -0.50377,-0.0128 -0.695048,-0.02429 -0.191278,-0.01149 -0.344443,-0.02711 -0.467671,-0.04754 -0.06161,-0.01021 -0.115808,-0.02169 -0.163298,-0.03462 -0.04749,-0.01293 -0.08822,-0.02693 -0.123507,-0.04289 -0.03529,-0.01596 -0.06542,-0.03391 -0.09043,-0.05323 -0.02502,-0.01931 -0.04534,-0.04006 -0.06201,-0.06304 -0.01667,-0.02298 -0.02954,-0.04796 -0.03979,-0.07493 -0.01025,-0.02697 -0.0175,-0.05605 -0.02325,-0.08733 -0.0115,-0.06257 -0.01613,-0.134288 -0.02119,-0.216008 -0.0077,-0.1239 -0.01856,-0.243974 -0.03256,-0.360701 -0.014,-0.116728 -0.0312,-0.230043 -0.05168,-0.340031 -0.02047,-0.109988 -0.04421,-0.216711 -0.07131,-0.320394 -0.0271,-0.103682 -0.05759,-0.203979 -0.09147,-0.30179 -0.03387,-0.09781 -0.07082,-0.19288 -0.111621,-0.285254 -0.0408,-0.09237 -0.08545,-0.182381 -0.133325,-0.269751 -0.04788,-0.08737 -0.09941,-0.17248 -0.154513,-0.255282 -0.05511,-0.0828 -0.113731,-0.16318 -0.176216,-0.241845 -0.06531,-0.08221 -0.215914,-0.248892 -0.406177,-0.451136 -0.190263,-0.202242 -0.420004,-0.439919 -0.643372,-0.664559 -0.223369,-0.224638 -0.472343,-0.490146 -0.692981,-0.736906 -0.220638,-0.246758 -0.413126,-0.475008 -0.524515,-0.624768 -0.09253,-0.124401 -0.181673,-0.251149 -0.267168,-0.380855 -0.0855,-0.129706 -0.167034,-0.26245 -0.245463,-0.397392 -0.07843,-0.134942 -0.153458,-0.272268 -0.224792,-0.412378 -0.07133,-0.140108 -0.139397,-0.282672 -0.203605,-0.42788 -0.06421,-0.14521 -0.124849,-0.293143 -0.181901,-0.443384 -0.05705,-0.150242 -0.110331,-0.303165 -0.160197,-0.45837 -0.04987,-0.155205 -0.09636,-0.312739 -0.13901,-0.47284 -0.04265,-0.160099 -0.08138,-0.32238 -0.116789,-0.487308 -0.01741,-0.0811 -0.03299,-0.181412 -0.04651,-0.296106 -0.01352,-0.114695 -0.02508,-0.243714 -0.03462,-0.382406 -0.0191,-0.277384 -0.03036,-0.5932 -0.03307,-0.908988 -0.0027,-0.31579 0.0032,-0.631572 0.01757,-0.908989 0.0072,-0.138708 0.01636,-0.268203 0.02791,-0.382922 0.01155,-0.114719 0.02533,-0.214974 0.04134,-0.296106 0.03191,-0.161672 0.0767,-0.344019 0.131258,-0.537435 0.0315,-0.111686 0.07222,-0.231549 0.109554,-0.348816 5.91e-4,-0.002 9.08e-4,-0.0042 0.0016,-0.0062 0.0033,-0.01144 0.0075,-0.02269 0.01085,-0.03411 0.02338,-0.07254 0.04254,-0.1416 0.0677,-0.214973 0.0054,-0.01581 0.01207,-0.0312 0.01757,-0.04703 0.01584,-0.04722 0.02918,-0.09509 0.04599,-0.14211 0.03952,-0.110542 0.08424,-0.219932 0.129191,-0.329696 0.0033,-0.0083 0.0062,-0.01685 0.0093,-0.02532 -0.0032,0.0084 -0.0064,0.0169 -0.0098,0.02532 0.01221,-0.03115 0.02276,-0.06376 0.03514,-0.09457 0.08028,-0.199825 0.163663,-0.391882 0.247013,-0.566373 0.08406,-0.175983 0.149851,-0.326529 0.197921,-0.45837 0.02403,-0.06592 0.04353,-0.127075 0.05891,-0.184485 0.01538,-0.05741 0.02659,-0.111178 0.03359,-0.161747 0.007,-0.05057 0.0095,-0.09824 0.0083,-0.143661 -0.0012,-0.04542 -0.0063,-0.08828 -0.0155,-0.130225 -0.0092,-0.04195 -0.02235,-0.08284 -0.03927,-0.122989 -0.01692,-0.04015 -0.0376,-0.07985 -0.06201,-0.11989 -0.02922,-0.04793 -0.06386,-0.09186 -0.102836,-0.131775 -0.03891,-0.03981 -0.08206,-0.0756 -0.128674,-0.10697 h -5.17e-4 c -0.04661,-0.03133 -0.09599,-0.05869 -0.148311,-0.08113 h -5.17e-4 c -0.05233,-0.02241 -0.107267,-0.0407 -0.163298,-0.05374 h -5.16e-4 c -0.05603,-0.01302 -0.113309,-0.02109 -0.171049,-0.02429 h -5.17e-4 c -0.05774,-0.0032 -0.115665,-0.0015 -0.173116,0.0057 h -5.17e-4 c -0.05745,0.0071 -0.114335,0.01931 -0.169499,0.03721 h -5.16e-4 c -0.05516,0.01793 -0.108801,0.04164 -0.159681,0.0708 h -5.16e-4 c -0.04042,0.02319 -0.0779,0.05199 -0.116272,0.09043 -0.0051,0.0051 -0.01087,0.01465 -0.01602,0.02015 -0.01888,0.03182 -0.0409,0.06207 -0.05943,0.09405 -0.131625,0.227243 -0.254214,0.458607 -0.367936,0.693498 -0.113722,0.234891 -0.21855,0.473251 -0.314193,0.714685 -0.09564,0.241436 -0.182028,0.485897 -0.259416,0.732772 -0.07739,0.246875 -0.145679,0.496031 -0.204638,0.747241 -0.05896,0.251211 -0.108473,0.504684 -0.148828,0.759127 -0.04035,0.254443 -0.07144,0.509791 -0.09302,0.766362 -0.01972,0.234573 -0.0297,0.469913 -0.03359,0.705383 -4.79e-4,0.07689 8.98e-4,0.156548 0.0016,0.235128 0.0012,0.201347 0.0036,0.402872 0.01654,0.604097 0.01651,0.257514 0.04222,0.514684 0.07803,0.771013 0.03581,0.256327 0.08165,0.511804 0.136942,0.765844 0.0553,0.25404 0.120388,0.50693 0.195337,0.757577 0.07495,0.250646 0.159469,0.499024 0.254248,0.745174 0.09478,0.24615 0.199925,0.490156 0.31471,0.730705 0.07285,0.152665 0.145888,0.298945 0.221175,0.441316 0.07529,0.142373 0.152638,0.280793 0.23306,0.416512 0.08042,0.135721 0.163924,0.268816 0.252181,0.401526 0.08826,0.132711 0.181299,0.265083 0.280087,0.398426 0.09879,0.133341 0.203208,0.267527 0.315226,0.405143 0.112018,0.137616 0.231722,0.278215 0.359668,0.423747 0.255892,0.291061 0.546325,0.60162 0.882117,0.946195 0.0666,0.06834 0.103202,0.110562 0.162264,0.172083 0.06304,0.06339 0.136148,0.135738 0.191719,0.193269 0.122779,0.127109 0.227738,0.241424 0.31781,0.3514 0.03736,0.04561 0.06221,0.08977 0.09457,0.134359 0.04536,0.05793 0.107868,0.126551 0.143661,0.179317 0.04312,0.06357 0.07991,0.124258 0.111621,0.183968 0.03171,0.05971 0.05814,0.118457 0.08113,0.178284 0.02299,0.05983 0.04245,0.121081 0.05943,0.185002 0.01697,0.06392 0.03183,0.13058 0.04548,0.202571 0.01689,0.08905 0.03176,0.385843 0.04289,0.791683 0.01113,0.40584 0.01809,0.920747 0.01809,1.447457 z"
         style="fill:#ffffff;stroke:#ffffff;stroke-width:3.2;stroke-linecap:round;stroke-linejoin:round;stroke-dasharray:none"
         id="path42"
         sodipodi:nodetypes="cscsssscccccsssccscccsscccsccccscccccscssscccsccssccccscccsccsscccsscscsccsssssssssssssccssssssssscsssssscssscssssssssssssssssssssscscssscccccscccssssssssscccccccccccccccsccsssssscccsssssssssssscsscsssssscc" /></g></g></svg>
