<?xml version="1.0" encoding="UTF-8" standalone="no"?>
<!-- Created with Inkscape (http://www.inkscape.org/) -->

<svg
   width="28.776567mm"
   height="14.925333mm"
   viewBox="0 0 28.776567 14.925333"
   version="1.1"
   id="svg1"
   xml:space="preserve"
   sodipodi:docname="reload.svg"
   xmlns:inkscape="http://www.inkscape.org/namespaces/inkscape"
   xmlns:sodipodi="http://sodipodi.sourceforge.net/DTD/sodipodi-0.dtd"
   xmlns="http://www.w3.org/2000/svg"
   xmlns:svg="http://www.w3.org/2000/svg"><sodipodi:namedview
     id="namedview1"
     pagecolor="#ffffff"
     bordercolor="#000000"
     borderopacity="0.25"
     inkscape:showpageshadow="2"
     inkscape:pageopacity="0.0"
     inkscape:pagecheckerboard="0"
     inkscape:deskcolor="#d1d1d1"
     inkscape:document-units="mm" /><defs
     id="defs1" /><g
     inkscape:label="Capa 1"
     inkscape:groupmode="layer"
     id="layer1"
     transform="translate(-56.278304,106.19754)"><path
       d="m 71.747932,-104.59971 c 0.18611,-0.004 0.371625,-0.003 0.556523,0.001 0.1849,0.006 0.368937,0.0152 0.552624,0.0299 0.183689,0.0146 0.366896,0.0344 0.549372,0.0585 0.182479,0.0241 0.364206,0.0529 0.545473,0.0865 0.181267,0.0336 0.362165,0.072 0.542222,0.11508 0.180054,0.0431 0.359474,0.0905 0.538319,0.14302 0.178843,0.0525 0.356785,0.10968 0.534419,0.17164 0.177632,0.062 0.354747,0.12884 0.531169,0.20025 0.176422,0.0714 0.352057,0.14734 0.527268,0.2282 0.175209,0.0809 0.350016,0.1665 0.524016,0.2568 0.174,0.0903 0.347328,0.18501 0.520117,0.28476 0.172161,0.0999 0.340542,0.20313 0.505162,0.30883 0.164618,0.10574 0.325983,0.21426 0.483057,0.32572 0.157077,0.11147 0.310119,0.2254 0.459654,0.34263 0.149535,0.11721 0.295554,0.23784 0.437547,0.36083 0.141994,0.12299 0.27969,0.24833 0.414142,0.37708 0.134452,0.12875 0.265128,0.26077 0.392038,0.39529 0.126908,0.13451 0.250565,0.27191 0.369932,0.41219 0.11937,0.14028 0.234702,0.2837 0.346527,0.42975 0.111821,0.146042 0.220139,0.294835 0.324424,0.446645 0.104284,0.151813 0.204275,0.306628 0.301017,0.464204 0.09674,0.157576 0.189711,0.317768 0.278911,0.481108 0.0892,0.163341 0.17515,0.329556 0.256807,0.498662 0.08166,0.169105 0.159287,0.341343 0.233403,0.516215 0.07412,0.174869 0.144723,0.352483 0.211297,0.533118 0.06658,0.180636 0.128859,0.364272 0.187892,0.550674 0.05903,0.186399 0.114299,0.37541 0.165787,0.567575 0.05165,0.192795 0.09886,0.385186 0.141082,0.57668 0.04223,0.191492 0.07968,0.381934 0.112473,0.572126 0.03279,0.190195 0.06117,0.379986 0.08452,0.568877 0.02335,0.188893 0.04199,0.377385 0.05592,0.564977 0.01391,0.187593 0.02282,0.374131 0.0273,0.560425 0.0025,0.101303 -3.03e-4,0.201987 -6.5e-4,0.302967 h -2.313867 c 4.5e-4,-0.09013 0.0022,-0.18008 0,-0.270459 -0.0036,-0.149258 -0.01091,-0.298948 -0.0221,-0.449251 -0.01125,-0.150303 -0.02614,-0.301153 -0.04486,-0.452502 -0.01872,-0.151346 -0.04069,-0.303358 -0.06697,-0.45575 -0.02628,-0.152394 -0.05653,-0.304912 -0.09037,-0.458352 -0.03385,-0.15344 -0.07173,-0.307768 -0.113129,-0.462254 -0.04106,-0.15323 -0.08487,-0.303838 -0.131981,-0.452501 -0.04712,-0.148664 -0.09701,-0.295401 -0.150182,-0.439497 -0.05317,-0.144097 -0.109819,-0.285666 -0.169039,-0.425195 -0.05922,-0.13953 -0.121319,-0.276581 -0.18659,-0.411543 -0.06527,-0.134962 -0.13347,-0.267494 -0.204796,-0.397889 -0.07133,-0.130395 -0.14562,-0.259057 -0.223,-0.384885 -0.07739,-0.125829 -0.157769,-0.249322 -0.241205,-0.370583 -0.08344,-0.121257 -0.169917,-0.240234 -0.259407,-0.35693 -0.08949,-0.11669 -0.182069,-0.231148 -0.277612,-0.343276 -0.09555,-0.112125 -0.19422,-0.222063 -0.295817,-0.329625 -0.101596,-0.107558 -0.206368,-0.212326 -0.314019,-0.315319 -0.107659,-0.102991 -0.217869,-0.203891 -0.331575,-0.302318 -0.113708,-0.09842 -0.230668,-0.194804 -0.350428,-0.288664 -0.119759,-0.0939 -0.242818,-0.18507 -0.368631,-0.27436 -0.125814,-0.0893 -0.25432,-0.17663 -0.386187,-0.26136 -0.131868,-0.0847 -0.267119,-0.1669 -0.40504,-0.24705 -0.13855,-0.08 -0.277276,-0.15643 -0.416743,-0.22885 -0.139468,-0.0724 -0.279609,-0.14124 -0.419994,-0.20611 -0.140384,-0.0649 -0.281293,-0.12538 -0.422595,-0.18268 -0.141302,-0.0573 -0.282975,-0.11091 -0.425195,-0.16058 -0.142218,-0.0497 -0.284658,-0.0956 -0.427795,-0.13784 -0.143136,-0.0422 -0.286992,-0.0805 -0.431046,-0.11507 -0.144054,-0.0346 -0.288674,-0.0659 -0.433647,-0.093 -0.144972,-0.027 -0.290357,-0.0501 -0.436247,-0.0695 -0.145891,-0.0195 -0.292041,-0.0349 -0.438848,-0.0468 -0.146808,-0.0119 -0.293724,-0.0204 -0.441449,-0.0247 -0.147724,-0.004 -0.296057,-0.004 -0.444699,-0.001 -0.148642,0.003 -0.29774,0.0101 -0.4473,0.0208 -0.149558,0.0113 -0.300072,0.0252 -0.45055,0.0435 -0.150477,0.0183 -0.301106,0.0411 -0.4525,0.0669 -0.151397,0.026 -0.30344,0.0556 -0.455753,0.0891 -0.152313,0.0335 -0.305122,0.0707 -0.458352,0.11181 -0.153857,0.0413 -0.305022,0.0854 -0.454451,0.13328 -0.149429,0.0478 -0.297099,0.099 -0.442099,0.15343 -0.145,0.0546 -0.287874,0.11248 -0.428446,0.17358 -0.14057,0.0612 -0.27865,0.12598 -0.414792,0.19375 -0.136143,0.0677 -0.270077,0.13883 -0.401791,0.21325 -0.131711,0.0744 -0.2615,0.1517 -0.388786,0.23275 -0.127284,0.081 -0.252277,0.16586 -0.375133,0.25356 -0.122855,0.0877 -0.243055,0.17873 -0.361482,0.27306 -0.118425,0.0943 -0.235129,0.1916 -0.349127,0.29256 -0.113996,0.100969 -0.225255,0.205117 -0.334825,0.312721 -0.109571,0.107603 -0.21733,0.218633 -0.322472,0.332876 -0.105139,0.114235 -0.208108,0.232149 -0.308818,0.353029 -0.100708,0.120878 -0.198883,0.245015 -0.295167,0.372533 -0.09629,0.127516 -0.190309,0.258531 -0.282163,0.392686 -0.09185,0.134156 -0.181735,0.271399 -0.269159,0.412193 -0.08742,0.140793 -0.172511,0.284915 -0.255507,0.432346 l 3.993841,2.306064 -7.88236,2.111673 -2.116222,-7.897311 3.998393,2.321015 c 0.102766,-0.18167 0.20823,-0.359573 0.31662,-0.533119 0.10839,-0.173545 0.219508,-0.342995 0.333525,-0.508413 0.114022,-0.165419 0.230783,-0.326414 0.350428,-0.483703 0.119646,-0.1573 0.242061,-0.31049 0.367332,-0.45966 0.12527,-0.14917 0.253338,-0.29455 0.384236,-0.43559 0.130898,-0.14105 0.264614,-0.27798 0.401139,-0.4109 0.136526,-0.13291 0.275892,-0.26139 0.418044,-0.38618 0.142153,-0.12479 0.287168,-0.24612 0.434947,-0.36279 0.147779,-0.11665 0.298445,-0.22888 0.45185,-0.33742 0.153407,-0.10854 0.309724,-0.21295 0.468755,-0.31337 0.159034,-0.10044 0.321,-0.19702 0.485659,-0.28932 0.164659,-0.0922 0.331627,-0.18045 0.501911,-0.26461 0.170286,-0.0841 0.343554,-0.1645 0.519466,-0.24054 0.175914,-0.076 0.354831,-0.14794 0.53637,-0.21585 0.18154,-0.0679 0.365458,-0.13136 0.552622,-0.19115 0.187168,-0.0597 0.377385,-0.11543 0.570179,-0.16708 0.192165,-0.0515 0.383775,-0.0984 0.574727,-0.14044 0.190955,-0.0421 0.381087,-0.0792 0.570828,-0.11181 0.189743,-0.0326 0.379045,-0.0607 0.567577,-0.0839 0.188532,-0.0232 0.376356,-0.0416 0.563676,-0.0552 0.187321,-0.0137 0.374316,-0.0224 0.560425,-0.0267 z"
       style="font-weight:bold;font-size:25.4px;font-family:'Cascadia Code';-inkscape-font-specification:'Cascadia Code Bold';letter-spacing:0px;opacity:1;fill:#ffffff;stroke:#ffffff;stroke-width:3.19056;stroke-linecap:round;stroke-linejoin:round;stroke-dasharray:none;stroke-opacity:1"
       id="path2"
       inkscape:export-filename="..\pngs\previous.png"
       inkscape:export-xdpi="96"
       inkscape:export-ydpi="96" /></g></svg>
